<svg id="Слой_1" data-name="Слой 1" xmlns="http://www.w3.org/2000/svg" viewBox="0 0 6.99 7.86"><defs><style>.cls-1{fill:#1157a1;}</style></defs><path class="cls-1" d="M307.38,367.62a.45.45,0,0,0-.46.05l-4.37,3.5a.43.43,0,0,0-.16.34.46.46,0,0,0,.16.34l4.37,3.49a.47.47,0,0,0,.27.1.41.41,0,0,0,.19-.05.43.43,0,0,0,.25-.39v-7A.43.43,0,0,0,307.38,367.62Zm-.62,6.47-3.23-2.58,3.23-2.59Z" transform="translate(-300.64 -367.58)"/><path class="cls-1" d="M301.08,368a.44.44,0,0,0-.44.44v6.11a.44.44,0,0,0,.88,0v-6.11A.44.44,0,0,0,301.08,368Z" transform="translate(-300.64 -367.58)"/></svg>