<svg id="Слой_1" data-name="Слой 1" xmlns="http://www.w3.org/2000/svg" viewBox="0 0 20.02 20.02"><defs><style>.cls-1{fill:#1154a0;}</style></defs><path class="cls-1" d="M288.07,420.77c0-2.22,0-4.43,0-6.65a3.14,3.14,0,0,1,3.36-3.35h13.39a3.13,3.13,0,0,1,3.26,3.21q0,6.79,0,13.59a3.13,3.13,0,0,1-3.22,3.21q-6.78,0-13.55,0a3.14,3.14,0,0,1-3.24-3.28Zm10-9.11h-6.73a2.51,2.51,0,0,0-1.48.4,2.32,2.32,0,0,0-.94,2.07v13.3a2.22,2.22,0,0,0,2.44,2.45h13.39a2.21,2.21,0,0,0,2.39-2.4q0-6.68,0-13.35a2.22,2.22,0,0,0-2.45-2.47Z" transform="translate(-288.07 -410.76)"/><path class="cls-1" d="M296.36,421.33c.53.53,1.08,1.05,1.59,1.59a.77.77,0,0,1,.23.53.45.45,0,0,1-.78.25c-.87-.85-1.73-1.72-2.58-2.59a.45.45,0,0,1,.06-.69l2.48-2.45c.22-.22.45-.35.71-.1s.13.52-.1.74a21.93,21.93,0,0,0-1.6,1.71h5.84a1.08,1.08,0,0,1,.48,0,.74.74,0,0,1,.36.45c0,.12-.21.3-.36.4s-.27,0-.4,0h-5.9Z" transform="translate(-288.07 -410.76)"/><path class="cls-1" d="M294,420.77c0,.82,0,1.64,0,2.46,0,.33-.1.59-.46.6s-.45-.27-.44-.6v-5c0-.31.08-.56.44-.56s.46.24.46.56C294,419.1,294,419.94,294,420.77Z" transform="translate(-288.07 -410.76)"/></svg>