<svg id="Слой_1" data-name="Слой 1" xmlns="http://www.w3.org/2000/svg" viewBox="0 0 47.89 52.7"><defs><style>.cls-1{fill:#245eaa;}</style></defs><path class="cls-1" d="M302.81,395.68H281.9c.18-.52.35-1,.48-1.42a10.29,10.29,0,0,0,.61-2.38c.19-5.79.31-11.59.46-17.39l.54-22.23a4.75,4.75,0,0,1,0-.51h37.4c0,.17,0,.3,0,.44l.33,13.84c0,1.83.1,3.67.17,5.5a1,1,0,0,0,1.06,1,1.07,1.07,0,0,0,1.08-1c0-.29,0-.58,0-.87q-.25-9.6-.48-19.2c0-1.34-.17-2.08-1.83-1.9-.32,0-.42-.11-.42-.42,0-.84,0-1.68,0-2.52,0-1.15-.32-1.47-1.47-1.47H285.72c-1.18,0-1.51.33-1.52,1.54v2.87h-1.13a1.06,1.06,0,0,0-1.19,1.12c0,.17,0,.34,0,.51q-.28,10.81-.54,21.62c-.16,6.21-.3,12.41-.47,18.62a4.88,4.88,0,0,1-.24,1.31c-.25.81-.63,1.6-.81,2.43-.28,1.31-.29,2.21.68,2.68H303l.34-.22a1,1,0,0,0,.4-1.14A1,1,0,0,0,302.81,395.68ZM286.36,349c0-.43,0-.86,0-1.29,0-.26.09-.39.36-.37h32.46v2.22l-.55,0H287C286.45,349.56,286.32,349.4,286.36,349Z" transform="translate(-279.63 -345.14)"/><path class="cls-1" d="M327.25,382.08a13.16,13.16,0,1,0-15.94,15.37c.69.17,1.41.26,2.11.39h1.86l1.21-.2A13.16,13.16,0,0,0,327.25,382.08Zm-12.94,13.59a11,11,0,1,1,11.05-11A11,11,0,0,1,314.31,395.67Z" transform="translate(-279.63 -345.14)"/><path class="cls-1" d="M296,354.83a1.62,1.62,0,0,0-2.22,2.34,1.29,1.29,0,0,1,.26.54,24.05,24.05,0,0,0,2.29,7.11,12.76,12.76,0,0,0,3.25,4.32,5,5,0,0,0,3.24,1.22c.13,0,.41,0,.67-.08A6,6,0,0,0,307,368a21.42,21.42,0,0,0,4.37-10.17,1.64,1.64,0,0,1,.3-.69,1.63,1.63,0,0,0-2.21-2.36A1.67,1.67,0,0,0,309,357a1.34,1.34,0,0,1,.15.81,21.14,21.14,0,0,1-2.45,6.88,9.44,9.44,0,0,1-2.31,2.87,2.35,2.35,0,0,1-3.36,0,9.81,9.81,0,0,1-1.77-2,20.1,20.1,0,0,1-3-7.91,1,1,0,0,1,.16-.6A1.66,1.66,0,0,0,296,354.83Z" transform="translate(-279.63 -345.14)"/><path class="cls-1" d="M320.86,383.64a3.41,3.41,0,0,0-.71-.06h-4.72v-1c0-1.36,0-2.71,0-4.07a1.09,1.09,0,0,0-1-1.14,1.07,1.07,0,0,0-1.12.73,2.91,2.91,0,0,0-.08.66V383c0,.19,0,.37,0,.6H312c-1.27,0-2.54,0-3.81,0a1.08,1.08,0,0,0-1.14,1,1.05,1.05,0,0,0,.73,1.11,2.44,2.44,0,0,0,.66.08h4.22l.59,0v.61c0,1.39,0,2.78,0,4.17a2.34,2.34,0,0,0,.1.75,1.07,1.07,0,0,0,1.13.64,1.1,1.1,0,0,0,.93-1.18c0-1.46,0-2.92,0-4.38v-.64h4.76a2.9,2.9,0,0,0,.66-.06,1.06,1.06,0,0,0,0-2.05Z" transform="translate(-279.63 -345.14)"/></svg>