<svg id="Слой_1" data-name="Слой 1" xmlns="http://www.w3.org/2000/svg" viewBox="0 0 24.36 29.83"><defs><style>.cls-1{fill:#004c9a;}</style></defs><path class="cls-1" d="M310.25,434.83c-.06-.87-.14-1.75-.21-2.6l-.06-.75c-.09-1-.17-2-.26-3l-.54-6.4a.8.8,0,0,0-.82-.84.73.73,0,0,0-.53.24,1,1,0,0,0-.2.7c0,.6.09,1.21.14,1.8,0,.28.05.56.07.83.25,3,.49,5.91.74,8.86v.59H305v-.36a.43.43,0,0,1,0-.16l.36-3.27.92-8.23c.07-.6.13-1.21.2-1.81.17-1.52.34-3.09.52-4.63a.83.83,0,0,0-1-1.08h-3.37v-1.05c0-.56,0-1.1,0-1.63,0-.14,0-.27,0-.41a7.27,7.27,0,0,0-.09-1.41A5.1,5.1,0,0,0,297.1,406a5.16,5.16,0,0,0-3.34,1.64,5.09,5.09,0,0,0-1.35,3.47c0,.66,0,1.34,0,2,0,.3,0,.6,0,.89v.69h-3.48a.79.79,0,0,0-.88.81l-.42,3.79-.49,4.46-.51,4.53-.21,2c-.16,1.45-.33,2.95-.5,4.43a.86.86,0,0,0,1,1.15h13.78a.79.79,0,0,0,.81-.51.73.73,0,0,0-.07-.69.91.91,0,0,0-.77-.36H287.54l2-18h2.86v1c0,.51,0,1,0,1.48a.79.79,0,0,0,.39.68.77.77,0,0,0,.75,0,.75.75,0,0,0,.42-.74v-2.4h7.13v1c0,.51,0,1,0,1.47a.78.78,0,0,0,.42.69.74.74,0,0,0,.77,0,.78.78,0,0,0,.37-.72v-2.38h2.69l-.18,1.61-.3,2.73c-.13,1.11-.25,2.21-.37,3.31s-.28,2.45-.41,3.67c-.09.77-.17,1.54-.26,2.31-.17,1.59-.35,3.23-.54,4.84a1,1,0,0,0,.18.8,1,1,0,0,0,.74.26h5.12a1,1,0,0,0,.74-.25A.9.9,0,0,0,310.25,434.83Zm-9.15-21.52v1.35H294v-.3c0-.16,0-.31,0-.46,0-.33,0-.67,0-1v-.68a11.05,11.05,0,0,1,.07-1.72,3.51,3.51,0,0,1,3.79-2.94,3.57,3.57,0,0,1,3.26,3.46C301.11,411.77,301.1,412.55,301.1,413.31Z" transform="translate(-285.9 -405.97)"/></svg>