<svg id="Слой_1" data-name="Слой 1" xmlns="http://www.w3.org/2000/svg" viewBox="0 0 12.65 12.69"><defs><style>.cls-1{fill:#06529d;}</style></defs><path class="cls-1" d="M294.42,425a.83.83,0,0,0,.61.24c1.13,0,2.27,0,3.41,0a.88.88,0,0,0,.66-.27l5-5.06a.65.65,0,0,0,0-1.05l-3.48-3.5c-.32-.31-.65-.61-1-.91h-.35a3.32,3.32,0,0,0-.36.26q-3.48,3.48-6.95,7a.65.65,0,0,0,0,1.05Zm2-5.83,3.35,3.36-.18.19c-.37.36-.72.73-1.1,1.09a.52.52,0,0,1-.34.14c-.92,0-1.84,0-2.75,0a.38.38,0,0,1-.26-.07c-.6-.55-1.19-1.12-1.78-1.68Z" transform="translate(-291.75 -414.43)"/><path class="cls-1" d="M304.4,426.31c0-.43,0-.46-.48-.46H292.11c-.28,0-.35.07-.35.36v.5c0,.35.06.41.42.41h11.91a.27.27,0,0,0,.31-.31Z" transform="translate(-291.75 -414.43)"/></svg>