<svg id="Слой_1" data-name="Слой 1" xmlns="http://www.w3.org/2000/svg" viewBox="0 0 13 13"><defs><style>.cls-1{fill:#e41f1d;}</style></defs><path class="cls-1" d="M455.56,411.79a.44.44,0,0,0-.48-.25h-3.32v-1.1a1,1,0,0,0-1.1-1.11h-3.11a1,1,0,0,0-1.08,1.07v1.14h-3.24a.62.62,0,0,0-.61.31v.3a.64.64,0,0,0,.67.29h1V415c0,1.94,0,4,0,5.94a1.28,1.28,0,0,0,.8,1.36h8.11A1.29,1.29,0,0,0,454,421c0-2,0-4,0-5.94v-2.6h1.18a.45.45,0,0,0,.41-.22A.4.4,0,0,0,455.56,411.79Zm-8.18-1.55h3.48v1.28h-3.48Zm5.6,11.11a.47.47,0,0,1-.33.1h0c-2.44,0-4.95,0-7.11,0a.3.3,0,0,1-.38-.35c0-2.13,0-4.3,0-6.4v-2.26h7.9v2.15c0,2.11,0,4.29,0,6.43A.45.45,0,0,1,453,421.35Z" transform="translate(-442.62 -409.33)"/><path class="cls-1" d="M449.56,414.8a.46.46,0,0,0-.44-.52h0a.41.41,0,0,0-.3.12.57.57,0,0,0-.15.41v4.25a.52.52,0,0,0,.17.41.39.39,0,0,0,.32.11.47.47,0,0,0,.41-.53q0-.74,0-1.47v-1.25C449.57,415.83,449.57,415.31,449.56,414.8Z" transform="translate(-442.62 -409.33)"/><path class="cls-1" d="M447.36,414.8a.47.47,0,0,0-.44-.52h0a.41.41,0,0,0-.3.12.53.53,0,0,0-.14.39v4.27c0,.31.17.52.44.52a.44.44,0,0,0,.3-.11.58.58,0,0,0,.15-.42V414.8Z" transform="translate(-442.62 -409.33)"/><path class="cls-1" d="M451.68,414.49a.4.4,0,0,0-.37-.21l-.11,0a.44.44,0,0,0-.33.45v4.33a.54.54,0,0,0,.14.38.43.43,0,0,0,.31.12.44.44,0,0,0,.43-.5c0-1.6,0-3,0-4.29A.58.58,0,0,0,451.68,414.49Z" transform="translate(-442.62 -409.33)"/></svg>