<svg id="Слой_1" data-name="Слой 1" xmlns="http://www.w3.org/2000/svg" viewBox="0 0 63.01 57.77"><defs><style>.cls-1{fill:#e5221f;}</style></defs><path class="cls-1" d="M478.68,387a6.15,6.15,0,0,1-.86,0H436c-5.58,0-11.16,0-16.74,0-1.15,0-1.66.45-1.66,1.59V443a3.76,3.76,0,0,0,0,.67,1.27,1.27,0,0,0,1.37,1.06,1.24,1.24,0,0,0,1.17-1.21c0-.2,0-.41,0-.62V408H478v33.9c0,.53,0,1.06,0,1.6a1.16,1.16,0,0,0,.88,1.13,1.23,1.23,0,0,0,1.42-.45l.28-.39v-56A1.85,1.85,0,0,0,478.68,387Zm-58.46,15.69V391.54a2.78,2.78,0,0,1,.36.24l4.18,4.17c.2.2.34.36.11.66-1.48,1.94-2.93,3.89-4.39,5.84A3,3,0,0,1,420.22,402.67Zm5.22,2.7h-3.91l3.91-5.24Zm44.74-.71c0,.6-.18.75-.76.74H438.78c-3.34,0-6.68,0-10,0-.54,0-.69-.15-.68-.69,0-2.81,0-5.62,0-8.43a1.91,1.91,0,0,0-.53-1.17c-1.66-1.72-3.38-3.4-5.08-5.1-.09-.09-.17-.2-.33-.38h53.94c-.15.18-.25.32-.36.43-1.69,1.68-3.39,3.35-5,5.06a1.86,1.86,0,0,0-.51,1.17C470.13,399.08,470.14,401.87,470.18,404.66Zm2.61.7v-5.23l3.93,5.23Zm5.21-2.8-.17.14a2,2,0,0,0-.14-.34l-4.24-5.66c-.16-.22-.34-.39-.05-.67,1.48-1.45,2.94-2.92,4.41-4.38,0,0,.1,0,.19-.08Z" transform="translate(-417.63 -386.94)"/><path class="cls-1" d="M464.78,414.6a1.22,1.22,0,0,0-1.23-1.32,1.28,1.28,0,0,0-1.34,1.3c0,.18,0,.37,0,.55,0,3.86,0,7.72,0,11.57a16.27,16.27,0,0,1-.19,2.7,13.14,13.14,0,0,1-26.07-1.94c0-3.19,0-6.39,0-9.59,0-1.07,0-2.14,0-3.2a1.3,1.3,0,0,0-1.56-1.38c-.65.13-1,.63-1,1.48q0,6.3,0,12.61a13.09,13.09,0,0,0,.18,2.26,15.72,15.72,0,0,0,31.22-1.87c.06-2,0-4.1,0-6.15h0V421C464.79,418.87,464.8,416.74,464.78,414.6Z" transform="translate(-417.63 -386.94)"/></svg>