<svg id="Слой_1" data-name="Слой 1" xmlns="http://www.w3.org/2000/svg" viewBox="0 0 24.19 19.87"><defs><style>.cls-1{fill:#e5221e;}</style></defs><path class="cls-1" d="M298.38,413.37l-.16.21-.15.2-.14-.2-.16-.21a6.22,6.22,0,0,0-2.47-1.78,7.68,7.68,0,0,0-2.92-.58,6,6,0,0,0-6.25,5.3,10.47,10.47,0,0,0,.26,4.63,12.64,12.64,0,0,0,3.58,5.82,17.68,17.68,0,0,0,7.93,4.1l.18,0,.17,0a17.68,17.68,0,0,0,7.93-4.1,12.64,12.64,0,0,0,3.58-5.82,10.62,10.62,0,0,0,.26-4.63,6.4,6.4,0,0,0-1.67-3.49,6.94,6.94,0,0,0-7.5-1.23A6.15,6.15,0,0,0,298.38,413.37Zm3-.43a5.45,5.45,0,0,1,5.91.91c1.33,1.33,1.75,4.09,1,6.7a11.16,11.16,0,0,1-3.17,5.14,16.18,16.18,0,0,1-7.06,3.69H298a16.14,16.14,0,0,1-7-3.69,11.18,11.18,0,0,1-3.18-5.14c-.72-2.61-.29-5.36,1-6.7a5.14,5.14,0,0,1,3.58-1.39h0a6.17,6.17,0,0,1,2.32.48,3.7,3.7,0,0,1,2.6,3.28.74.74,0,1,0,1.47,0A3.7,3.7,0,0,1,301.41,412.94Z" transform="translate(-285.98 -411.01)"/></svg>