<svg id="Слой_1" data-name="Слой 1" xmlns="http://www.w3.org/2000/svg" viewBox="0 0 18.2 14.95"><defs><style>.cls-1{fill:#e41515;}</style></defs><path class="cls-1" d="M449.35,410.26l-.11.15-.12.16-.11-.16a.79.79,0,0,0-.12-.15,4.57,4.57,0,0,0-1.85-1.34,5.83,5.83,0,0,0-2.2-.43,4.8,4.8,0,0,0-3.45,1.35,4.93,4.93,0,0,0-1.26,2.63,8.12,8.12,0,0,0,.2,3.48,9.49,9.49,0,0,0,2.7,4.38,13.24,13.24,0,0,0,6,3.09h.27a13.29,13.29,0,0,0,6-3.09,9.49,9.49,0,0,0,2.7-4.38,8.12,8.12,0,0,0,.2-3.48,4.87,4.87,0,0,0-1.27-2.63,5.23,5.23,0,0,0-5.64-.92A4.67,4.67,0,0,0,449.35,410.26Z" transform="translate(-440.02 -408.48)"/></svg>