<svg id="Слой_1" data-name="Слой 1" xmlns="http://www.w3.org/2000/svg" viewBox="0 0 13.97 14.5"><defs><style>.cls-1{fill:#2761ab;}</style></defs><path class="cls-1" d="M454.82,411.19a18.32,18.32,0,0,1-5.15.69c-1,0-2-.05-3-.11a13.31,13.31,0,0,1-2.93-.5c-.54-.16-1.06-.37-1.57-.56l.1.14,5.11,6.95a.65.65,0,0,1,.11.22c.1.81.19,1.62.29,2.42s.17,1.5.26,2.25c0,.32.24.44.54.31l1.49-.65a.38.38,0,0,0,.28-.36c0-.18,0-.36.06-.54.12-1,.23-2.09.35-3.13a1.15,1.15,0,0,1,.21-.61c1.11-1.49,2.2-3,3.3-4.47l1.87-2.54C455.67,410.87,455.25,411.05,454.82,411.19Z" transform="translate(-442.14 -408.55)"/><path class="cls-1" d="M443.45,409.93a1.39,1.39,0,0,0,.31.18,9.91,9.91,0,0,0,1,.31,21.74,21.74,0,0,0,4.33.4c.61,0,1.22,0,1.83-.07.93-.1,1.86-.23,2.78-.39a3.52,3.52,0,0,0,1-.41c.29-.15.28-.4,0-.56a3.42,3.42,0,0,0-.81-.35,14.67,14.67,0,0,0-4-.49c-1.15,0-2.32,0-3.47.12a14.86,14.86,0,0,0-2.2.37,2.68,2.68,0,0,0-.85.37C443.22,409.55,443.24,409.76,443.45,409.93Z" transform="translate(-442.14 -408.55)"/></svg>