<svg id="Слой_1" data-name="Слой 1" xmlns="http://www.w3.org/2000/svg" viewBox="0 0 37.28 33.62"><defs><style>.cls-1{fill:#010101;}</style></defs><path class="cls-1" d="M460,413.85l3.82-3.45a.93.93,0,0,0,.3-.68v-5.5c0-3.57-8.71-5.2-16.81-5.2s-16.81,1.63-16.81,5.2v5.5a.93.93,0,0,0,.3.68l13.15,12v9.37a.91.91,0,0,0,.43.78,1,1,0,0,0,.49.14.86.86,0,0,0,.41-.1l4.89-2.44a.93.93,0,0,0,.5-.82v-.54A9.47,9.47,0,1,0,460,413.85Zm-12.69-13c9.69,0,15,2.22,15,3.36s-5.29,3.36-15,3.36-15-2.22-15-3.36S437.6,400.86,447.29,400.86Zm1.53,23.4v4.45l-3.06,1.53v-8.3a.93.93,0,0,0-.3-.68l-13.14-11.95v-2.57c3,1.82,9.12,2.67,15,2.67s12-.85,15-2.67v2.57l-4.84,4.37a.21.21,0,0,1,0,.06,9.47,9.47,0,0,0-8.57,9.42c0,.3,0,.59,0,.88A.93.93,0,0,0,448.82,424.26Zm9.47,6.54a7.64,7.64,0,1,1,7.64-7.64A7.65,7.65,0,0,1,458.29,430.8Z" transform="translate(-430.48 -399.02)"/><path class="cls-1" d="M462,422.25h-2.75V419.5a.92.92,0,1,0-1.83,0v2.75h-2.75a.92.92,0,1,0,0,1.83h2.75v2.75a.92.92,0,1,0,1.83,0v-2.75H462a.92.92,0,1,0,0-1.83Z" transform="translate(-430.48 -399.02)"/></svg>