<svg id="Слой_1" data-name="Слой 1" xmlns="http://www.w3.org/2000/svg" viewBox="0 0 14.94 14.94"><defs><style>.cls-1{fill:#1356a1;fill-rule:evenodd;}</style></defs><g id="Cancel"><path class="cls-1" d="M172.78,269.36a7.47,7.47,0,1,0,7.47,7.47A7.47,7.47,0,0,0,172.78,269.36Zm0,14a6.54,6.54,0,1,1,6.54-6.53A6.53,6.53,0,0,1,172.78,283.36Z" transform="translate(-165.31 -269.36)"/><path class="cls-1" d="M175.92,279.29l-2.46-2.46,2.45-2.43a.47.47,0,0,0,0-.66.48.48,0,0,0-.67,0l-2.44,2.43-2.48-2.48a.45.45,0,0,0-.66,0,.46.46,0,0,0,0,.67l2.47,2.47-2.49,2.47a.47.47,0,0,0,0,.66.48.48,0,0,0,.67,0l2.48-2.47,2.47,2.47a.47.47,0,0,0,.66,0A.46.46,0,0,0,175.92,279.29Z" transform="translate(-165.31 -269.36)"/></g></svg>