<svg id="Слой_1" data-name="Слой 1" xmlns="http://www.w3.org/2000/svg" viewBox="0 0 5.96 5.96"><defs><style>.cls-1{fill:#fff;}</style></defs><path class="cls-1" d="M449.59,415.83l.09.09,2.25,2.26a.57.57,0,0,1,.11.11.32.32,0,0,1,0,.42.3.3,0,0,1-.42,0l-.11-.09-2.24-2.24-.11-.11-.1.11-2.24,2.23a.63.63,0,0,1-.12.11.31.31,0,0,1-.42,0,.3.3,0,0,1,0-.42l.09-.1,2.25-2.25.1-.1-.1-.11-2.26-2.26a.61.61,0,0,1-.15-.23.29.29,0,0,1,.14-.32.3.3,0,0,1,.35,0,.69.69,0,0,1,.13.11l2.25,2.25.1.1.11-.1,2.26-2.26a.49.49,0,0,1,.23-.14.28.28,0,0,1,.32.13.32.32,0,0,1,0,.36l-.12.13-2.24,2.24Z" transform="translate(-446.14 -412.85)"/></svg>