<svg id="Слой_1" data-name="Слой 1" xmlns="http://www.w3.org/2000/svg" viewBox="0 0 15.76 15.76"><defs><style>.cls-1{fill:#fff;}</style></defs><path class="cls-1" d="M305.9,424a4.36,4.36,0,0,1-4.58,4.58c-1.3.07-5.19.07-6.5,0a4.36,4.36,0,0,1-4.57-4.58c-.07-1.3-.07-5.2,0-6.5a4.36,4.36,0,0,1,4.57-4.57c1.31-.07,5.2-.07,6.5,0a4.76,4.76,0,0,1,3.31,1.28,4.68,4.68,0,0,1,1.27,3.3C306,418.83,306,422.72,305.9,424Zm-1.37-3.24c0-1.15.1-3.61-.31-4.65a2.7,2.7,0,0,0-1.5-1.5,17.81,17.81,0,0,0-4.64-.31c-1.15,0-3.61-.1-4.65.31a2.7,2.7,0,0,0-1.5,1.5,17.89,17.89,0,0,0-.31,4.65c0,1.14-.1,3.6.31,4.64a2.7,2.7,0,0,0,1.5,1.5c1,.41,3.5.31,4.65.31s3.6.1,4.64-.31a2.7,2.7,0,0,0,1.5-1.5C304.63,424.39,304.53,421.92,304.53,420.78Zm-2.41,0a4,4,0,1,1-4-4A4,4,0,0,1,302.12,420.78Zm-1.42,0a2.63,2.63,0,1,0-2.62,2.62A2.62,2.62,0,0,0,300.7,420.78Zm1.58-3.27a.94.94,0,1,1,.94-.94A.94.94,0,0,1,302.28,417.51Z" transform="translate(-290.2 -412.9)"/></svg>