<svg id="Слой_1" data-name="Слой 1" xmlns="http://www.w3.org/2000/svg" viewBox="0 0 15.85 15.84"><defs><style>.cls-1{fill:#044d9b;}</style></defs><path class="cls-1" d="M301.17,423.86a4.35,4.35,0,0,1-2.26,1.18,4,4,0,1,1,3.33-3.92c0,.41,0,.82,0,1.23a1.2,1.2,0,0,0,1.13,1.16,1.17,1.17,0,0,0,1.21-1,7.33,7.33,0,0,0-1-4.89,6.33,6.33,0,1,0-5.57,9.86l.29,0v1.57a7.73,7.73,0,0,1-3.86-1,7.89,7.89,0,0,1-3.92-8.16A7.91,7.91,0,0,1,306.19,421a11.46,11.46,0,0,1,0,1.66,2.63,2.63,0,0,1-1.91,2.34,2.67,2.67,0,0,1-2.88-.78.93.93,0,0,1-.13-.15A.79.79,0,0,1,301.17,423.86Zm-.51-2.74a2.38,2.38,0,1,0-2.34,2.39A2.38,2.38,0,0,0,300.66,421.12Z" transform="translate(-290.36 -413.2)"/></svg>