<svg id="Слой_1" data-name="Слой 1" xmlns="http://www.w3.org/2000/svg" viewBox="0 0 13.1 13.11"><defs><style>.cls-1{fill:#fff;}</style></defs><path class="cls-1" d="M297.1,420.82l-.23-.21-5.09-5.1a.73.73,0,0,1-.17-.88.72.72,0,0,1,1.15-.16l2.28,2.28L298,419.7l.09.09.12-.12,5.16-5.16a.72.72,0,1,1,1.09.93l-.11.12-5.13,5.13-.14.14.16.11,5.15,5.16a.71.71,0,0,1,.23.72.68.68,0,0,1-.55.52.7.7,0,0,1-.68-.22l-2-2-3.18-3.18a.84.84,0,0,0-.13-.12.44.44,0,0,1-.08.15l-5.17,5.16a.71.71,0,1,1-1.08-.93l.12-.12,5.11-5.12A1.42,1.42,0,0,1,297.1,420.82Z" transform="translate(-291.53 -414.25)"/></svg>