<svg id="Слой_1" data-name="Слой 1" xmlns="http://www.w3.org/2000/svg" viewBox="0 0 13.94 13.94"><defs><style>.cls-1{fill:#094f9c;}</style></defs><path class="cls-1" d="M449.12,408.86a7,7,0,1,0,7,7A7,7,0,0,0,449.12,408.86Zm0,12.67a5.7,5.7,0,1,1,5.71-5.7A5.7,5.7,0,0,1,449.12,421.53Z" transform="translate(-442.15 -408.86)"/><path class="cls-1" d="M451.66,415.2h-1.9v-1.9a.64.64,0,0,0-.64-.64.63.63,0,0,0-.63.64v1.9h-1.9a.63.63,0,0,0,0,1.26h1.9v1.91a.63.63,0,0,0,.63.63.64.64,0,0,0,.64-.63v-1.91h1.9a.63.63,0,0,0,0-1.26Z" transform="translate(-442.15 -408.86)"/></svg>