<svg id="Слой_1" data-name="Слой 1" xmlns="http://www.w3.org/2000/svg" viewBox="0 0 20.02 20.02"><defs><style>.cls-1{fill:#1154a0;}</style></defs><path class="cls-1" d="M308.09,427.5a3.15,3.15,0,0,1-3.25,3.28q-6.76,0-13.54,0a3.13,3.13,0,0,1-3.23-3.21q0-6.79,0-13.59a3.14,3.14,0,0,1,3.26-3.21h13.39a3.15,3.15,0,0,1,3.37,3.35V427.5Zm-16.66-15.84a2.22,2.22,0,0,0-2.46,2.47v13.35a2.21,2.21,0,0,0,2.4,2.4h13.38a2.22,2.22,0,0,0,2.44-2.45v-13.3a2.32,2.32,0,0,0-.94-2.07,2.51,2.51,0,0,0-1.48-.4H291.43Z" transform="translate(-288.07 -410.76)"/><path class="cls-1" d="M299.79,421.33c-.53.53-1.07,1.05-1.59,1.59a.77.77,0,0,0-.23.53.45.45,0,0,0,.78.25c.87-.85,1.73-1.72,2.58-2.59a.45.45,0,0,0-.06-.69L298.79,418c-.21-.22-.45-.35-.7-.1s-.14.52.09.74a20.17,20.17,0,0,1,1.6,1.71h-5.84a1.08,1.08,0,0,0-.48,0,.74.74,0,0,0-.36.45c0,.12.21.3.36.4s.27,0,.4,0h5.9Z" transform="translate(-288.07 -410.76)"/><path class="cls-1" d="M302.19,420.77c0,.82,0,1.64,0,2.46,0,.33.1.59.46.6s.45-.27.45-.6c0-1.65,0-3.3,0-5,0-.31-.09-.56-.44-.56s-.47.24-.46.56Z" transform="translate(-288.07 -410.76)"/></svg>