<svg id="Слой_1" data-name="Слой 1" xmlns="http://www.w3.org/2000/svg" viewBox="0 0 19.84 19.79"><defs><style>.cls-1{fill:#e41f1a;}</style></defs><path class="cls-1" d="M443.87,405.94H454.4v9.3H459c0,.11,0,.2,0,.29q0,5,0,9.9c0,.22-.05.29-.29.29H439.2V415.3h4.67Zm-3.59,10.41v8.28h8.27v-8.22h-1.79v2.37H442v-2.43Zm9.39,8.28H458v-8.22h-1.8v2.37H451.4v-2.43h-1.73Zm1.8-15.25h-4.76V407H445v8.27h8.16V407h-1.72Zm-8.35,7v1.32h2.56v-1.32Zm9.37,0v1.27h2.56v-1.27Zm-4.69-8.11h2.56V407H447.8Z" transform="translate(-439.2 -405.94)"/></svg>