<svg id="Слой_1" data-name="Слой 1" xmlns="http://www.w3.org/2000/svg" viewBox="0 0 61.24 53.29"><defs><style>.cls-1{fill:#e4201b;}</style></defs><path class="cls-1" d="M273.52,344.84v53.3h61.24v-53.3Zm58.66,50.76H276.09V358.4h56.09Zm0-39.85H276.08V347.4h56.11Z" transform="translate(-273.52 -344.84)"/><path class="cls-1" d="M304.17,389.23a12.89,12.89,0,1,0-12.93-12.89A12.85,12.85,0,0,0,304.17,389.23ZM304.11,366a10.35,10.35,0,1,1-10.32,10.36A10.34,10.34,0,0,1,304.11,366Z" transform="translate(-273.52 -344.84)"/><path class="cls-1" d="M281.36,350.33h-2.61v2.48h2.61Z" transform="translate(-273.52 -344.84)"/><path class="cls-1" d="M287.11,350.32h-2.62v2.49h2.62Z" transform="translate(-273.52 -344.84)"/><path class="cls-1" d="M292.86,350.33h-2.61v2.46h2.61Z" transform="translate(-273.52 -344.84)"/><path class="cls-1" d="M303.63,378.81c.3.63.66.61,1,0a4.41,4.41,0,0,0,.35-.8,27.83,27.83,0,0,0,1.27-6.89,2.37,2.37,0,0,0-.19-1,2.14,2.14,0,0,0-2.48-1.21,2.42,2.42,0,0,0-1.72,2.44c.33,1.8.64,3.59,1,5.38A10.48,10.48,0,0,0,303.63,378.81Z" transform="translate(-273.52 -344.84)"/><path class="cls-1" d="M304.14,381.22a1.39,1.39,0,1,0,1.38,1.37A1.37,1.37,0,0,0,304.14,381.22Z" transform="translate(-273.52 -344.84)"/></svg>