<svg id="Слой_1" data-name="Слой 1" xmlns="http://www.w3.org/2000/svg" viewBox="0 0 64.78 69.58"><defs><style>.cls-1{fill:#004c9b;}</style></defs><path class="cls-1" d="M336.51,370.68a2.35,2.35,0,0,0-.37-1.2c-1.38-2.15-2.83-4.26-4.22-6.4a1.65,1.65,0,0,0-1.56-.83c-3.08,0-6.17,0-9.25,0h-.74c0-.17,0-.22,0-.27,0-2.53,0-5.07,0-7.6a5.79,5.79,0,0,0-6-6c-1.68,0-3.37,0-5.06,0a1.89,1.89,0,0,1-.87-.24,6.16,6.16,0,0,0-3.29-.91H303c0-1.62,0-3.16,0-4.7a5.62,5.62,0,0,0-4.72-5.59,15.33,15.33,0,0,0-4.17,0,5.68,5.68,0,0,0-5,5.82c0,1.48,0,3,0,4.52h-2.24a6.05,6.05,0,0,0-3.09.86,2.06,2.06,0,0,1-1,.28c-1.73,0-3.47,0-5.2,0a5.75,5.75,0,0,0-5.81,5.85q0,23.12,0,46.22a5.77,5.77,0,0,0,5.87,5.88h36.87a5.78,5.78,0,0,0,5.84-5.83c0-1.11,0-2.22,0-3.44H334a2.32,2.32,0,0,0,2.53-2.51Q336.54,382.6,336.51,370.68Zm-7.07-6.11a1.06,1.06,0,0,1,1.05.54c.85,1.34,1.75,2.65,2.7,4.08h-28l1.63-2.45c.48-.72.84-1.69,1.52-2.06s1.64-.1,2.48-.1Zm-8,7v8.16l-1.15-.76c-1-.69-1.19-.69-2.2,0l-1.2.8v-8.18Zm-6.95,0V375H304.17v-3.4Zm.56-20.84a3.19,3.19,0,0,1,2.91,3c.1,2.83,0,5.67,0,8.54H315.7v-6.33c0-2.1-.8-2.9-2.93-2.91h-1.61c-.16-.79-.32-1.51-.48-2.28C312.14,350.7,313.61,350.6,315.05,350.72Zm-28-1.21h2.82c1.14,0,1.53-.39,1.53-1.51,0-1.74,0-3.48,0-5.22a3.48,3.48,0,0,1,3.72-3.7h1.95a3.46,3.46,0,0,1,3.58,3.62c0,1.78,0,3.57,0,5.36,0,1,.4,1.44,1.44,1.45H305a3.49,3.49,0,0,1,3.76,3.8v.8H283.41A3.59,3.59,0,0,1,287.06,349.51Zm21.67,7v1.07H283.35v-1.07Zm.86,3.43c1.09,0,1.48-.4,1.49-1.48v-3.1h2.26v6.9c-1.71,0-3.42,0-5.12,0a2,2,0,0,0-1.94,1.06c-1.3,2-2.68,4-4,6a2.86,2.86,0,0,0-.46,1.47q0,11.81,0,23.61a2.36,2.36,0,0,0,2.59,2.61h8.75l.2,0v2.22H287.94v-.67c0-1.67,0-3.34,0-5a3.45,3.45,0,0,0-3.57-3.56c-1.8,0-3.61,0-5.42,0l-.2,0V355.35H281v3.1c0,1.09.4,1.49,1.48,1.49ZM280.64,392.4c1.24,0,2.6,0,4,0a1,1,0,0,1,1,1.05c0,1.34,0,2.69,0,3.94Zm3.11,6.91h-5v-5ZM318,401a3.43,3.43,0,0,1-3.65,3h-36.5a3.49,3.49,0,0,1-3.76-3.74V354.47a3.49,3.49,0,0,1,3.77-3.8h3.57c-.16.76-.31,1.48-.49,2.31h-2a2.33,2.33,0,0,0-2.54,2.58v43.52a2.34,2.34,0,0,0,2.61,2.58h34A2.36,2.36,0,0,0,315.7,399c0-.63,0-1.25,0-1.94H318C318,398.39,318.09,399.69,318,401Zm16.21-6.32h-30v-17.3h10.38v3.3c0,.41,0,.82,0,1.23a1.14,1.14,0,0,0,1.83,1c.8-.49,1.58-1,2.35-1.56a.65.65,0,0,1,.89,0,19.07,19.07,0,0,0,2.23,1.47,1.65,1.65,0,0,0,1.31.12,1.57,1.57,0,0,0,.61-1.17c.08-1.44,0-2.89,0-4.37h10.38Zm0-19.7H323.84v-3.4h10.34Z" transform="translate(-271.75 -336.73)"/><path class="cls-1" d="M281,373.93a2.22,2.22,0,0,0,2.15,2.22c2.4,0,4.81,0,7.22,0a2.2,2.2,0,0,0,2.14-2c.08-.86,0-1.72,0-2.59h-2.33v2.23h-6.86v-6.94h6.86v-2.28c-2.43,0-4.83,0-7.23,0a2.16,2.16,0,0,0-2,2.22C281,369.2,281,371.57,281,373.93Z" transform="translate(-271.75 -336.73)"/><path class="cls-1" d="M281.06,385.4h16.1v-2.23h-16.1Z" transform="translate(-271.75 -336.73)"/><path class="cls-1" d="M285.67,378.52v2.24h11.47v-2.24Z" transform="translate(-271.75 -336.73)"/><path class="cls-1" d="M286.55,368.31l-1.7,1.77c.79.78,1.54,1.56,2.33,2.3a1,1,0,0,0,1.5,0c1.57-1.53,3.1-3.1,4.65-4.67l-1.64-1.66L287.9,370Z" transform="translate(-271.75 -336.73)"/><path class="cls-1" d="M299.46,365.77h-4.54V368h4.54Z" transform="translate(-271.75 -336.73)"/><path class="cls-1" d="M299.47,369.26h-4.55v2.23h4.55Z" transform="translate(-271.75 -336.73)"/><path class="cls-1" d="M283.28,378.53h-2.23v2.24h2.23Z" transform="translate(-271.75 -336.73)"/><path class="cls-1" d="M296.06,348.35a3.48,3.48,0,1,0-3.49-3.5A3.49,3.49,0,0,0,296.06,348.35Zm-.05-4.63a1.15,1.15,0,1,1-1.12,1.18A1.16,1.16,0,0,1,296,343.72Z" transform="translate(-271.75 -336.73)"/></svg>