<svg id="Слой_1" data-name="Слой 1" xmlns="http://www.w3.org/2000/svg" viewBox="0 0 13.73 10.29"><defs><style>.cls-1{fill:#0f0f0f;}</style></defs><path class="cls-1" d="M304.13,376.64c-4.3,0-6.7-4.69-6.8-4.89a.57.57,0,0,1,0-.51c.1-.2,2.5-4.89,6.8-4.89s6.71,4.69,6.81,4.89a.57.57,0,0,1,0,.51C310.84,372,308.44,376.64,304.13,376.64Zm-5.63-5.14c.53.92,2.56,4,5.63,4s5.11-3.08,5.64-4c-.53-.92-2.56-4-5.64-4S299.06,370.57,298.5,371.5Z" transform="translate(-297.27 -366.35)"/><path class="cls-1" d="M304.13,373.78a2.29,2.29,0,1,1,2.29-2.29h0a2.28,2.28,0,0,1-2.28,2.28Zm0-3.43a1.15,1.15,0,1,0,1.15,1.15h0A1.14,1.14,0,0,0,304.13,370.35Z" transform="translate(-297.27 -366.35)"/></svg>