<svg id="Слой_1" data-name="Слой 1" xmlns="http://www.w3.org/2000/svg" viewBox="0 0 14 14.01"><defs><style>.cls-1{fill:#0f0f0f;}</style></defs><path class="cls-1" d="M396.66,452.44a7.59,7.59,0,0,1,1.08-.13c3.13,0,5.19,3.14,5.74,4.07a10.67,10.67,0,0,1-1,1.48.56.56,0,0,0,0,.8l0,0a.55.55,0,0,0,.37.14.62.62,0,0,0,.45-.21,11.72,11.72,0,0,0,1.32-1.95.64.64,0,0,0,0-.54c-.1-.2-2.54-5-6.91-5a4.78,4.78,0,0,0-1.36.16.57.57,0,0,0-.44.68v0A.58.58,0,0,0,396.66,452.44Z" transform="translate(-390.75 -449.4)"/><path class="cls-1" d="M404.54,462.37l-12.79-12.79a.58.58,0,0,0-.82,0,.57.57,0,0,0,0,.82l0,0,2.5,2.5a10.63,10.63,0,0,0-2.6,3.21.51.51,0,0,0,0,.53c.1.21,2.54,5,6.92,5a6.47,6.47,0,0,0,3.38-1l2.6,2.6a.59.59,0,0,0,.82,0,.58.58,0,0,0,.05-.81Zm-8-6.31,1.47,1.52a1.91,1.91,0,0,1-.33.06,1.16,1.16,0,0,1-1.14-1.53Zm1.14,4.39c-3.12,0-5.18-3.13-5.73-4.06a9.78,9.78,0,0,1,2.25-2.67l1.47,1.47a2.34,2.34,0,0,0,.39,2.94,2.29,2.29,0,0,0,1.58.62h.08a2.29,2.29,0,0,0,1.15-.36l1.35,1.35a5.31,5.31,0,0,1-2.54.71Z" transform="translate(-390.75 -449.4)"/></svg>