<svg id="Слой_1" data-name="Слой 1" xmlns="http://www.w3.org/2000/svg" viewBox="0 0 14.97 16.64"><defs><style>.cls-1{fill:#010101;}</style></defs><path class="cls-1" d="M304.73,429.09a.83.83,0,0,1-.83-.83V426.6a2.5,2.5,0,0,0-2.5-2.5h-6.65a2.5,2.5,0,0,0-2.5,2.5v1.66a.83.83,0,0,1-1.66,0V426.6a4.16,4.16,0,0,1,4.16-4.16h6.65a4.17,4.17,0,0,1,4.16,4.16v1.66A.83.83,0,0,1,304.73,429.09Z" transform="translate(-290.59 -412.46)"/><path class="cls-1" d="M298.07,420.78a4.16,4.16,0,1,1,4.16-4.16A4.16,4.16,0,0,1,298.07,420.78Zm0-6.66a2.5,2.5,0,1,0,2.5,2.5A2.5,2.5,0,0,0,298.07,414.12Z" transform="translate(-290.59 -412.46)"/></svg>