<svg id="Слой_1" data-name="Слой 1" xmlns="http://www.w3.org/2000/svg" viewBox="0 0 44.81 44.28"><defs><style>.cls-1{fill:#fff;}</style></defs><path class="cls-1" d="M420.15,440.09v26.17c0,.08-.06.16-.08.24a6.7,6.7,0,0,1-5.09,5.55c-.64.14-1.3.14-2,.23a3.32,3.32,0,0,0-2.85,2.33c-.07.2-.11.42-.18.62a4.52,4.52,0,0,1-7.82,1.5c-.4-.51-.81-1-1.19-1.56a6.84,6.84,0,0,0-6-2.94c-4.31,0-8.61,0-12.91,0a6.71,6.71,0,0,1-6.76-6.7q0-12.33,0-24.67a6.7,6.7,0,0,1,6.67-6.7q15.74,0,31.46,0a6.72,6.72,0,0,1,6.46,5.06C420,439.5,420.08,439.8,420.15,440.09Zm-22.1,2.77a2.25,2.25,0,0,0-2.07,1.31c-.67,1.33-1.35,2.65-2,4a.66.66,0,0,1-.56.4c-1.4.17-2.8.39-4.2.55a2.29,2.29,0,0,0-2.12,1.5,2.24,2.24,0,0,0,.69,2.53q1.56,1.51,3.06,3.06a.72.72,0,0,1,.18.56c-.22,1.29-.48,2.58-.69,3.87a4.76,4.76,0,0,0,0,1.68,2.18,2.18,0,0,0,3.17,1.37c1.36-.66,2.71-1.36,4.05-2.07a.64.64,0,0,1,.68,0c1.26.7,2.52,1.4,3.8,2.06a3,3,0,0,0,1.19.37,2.25,2.25,0,0,0,2.24-2.84c-.24-1.43-.45-2.85-.69-4.27a.59.59,0,0,1,.21-.61c1.12-1.05,2.23-2.1,3.32-3.17a2.23,2.23,0,0,0-1.19-3.8c-1.42-.24-2.84-.47-4.27-.68a1,1,0,0,1-.88-.62c-.58-1.3-1.22-2.58-1.84-3.86A2.2,2.2,0,0,0,398.05,442.86Z" transform="translate(-375.34 -434.14)"/></svg>