<svg id="Слой_1" data-name="Слой 1" xmlns="http://www.w3.org/2000/svg" viewBox="0 0 18.84 18.08"><defs><style>.cls-1{fill:#fac818;}</style></defs><path class="cls-1" d="M397.82,447.32a1.17,1.17,0,0,1,1.13.78c.62,1.55,1.23,3.09,1.84,4.64a.32.32,0,0,0,.33.23c.85,0,1.7.13,2.55.19l1.89.14a3,3,0,0,1,.67.08,1.17,1.17,0,0,1,.92,1,1.15,1.15,0,0,1-.45,1.17l-3.86,3.21a.25.25,0,0,0-.09.29c.4,1.6.79,3.19,1.17,4.78a1.25,1.25,0,0,1-.37,1.27,1.21,1.21,0,0,1-1.18.27,1.55,1.55,0,0,1-.29-.14l-4.22-2.67a.35.35,0,0,0-.42,0q-2,1.27-4.09,2.54a1.27,1.27,0,0,1-1.79-.35,1.15,1.15,0,0,1-.14-.94c.41-1.61.81-3.22,1.23-4.83a.37.37,0,0,0-.14-.43l-3.59-3a1.48,1.48,0,0,1-.57-.91,1.22,1.22,0,0,1,1.1-1.39c1.15-.07,2.29-.16,3.44-.24l1.58-.09a.31.31,0,0,0,.32-.22c.59-1.47,1.2-2.94,1.79-4.41a1.36,1.36,0,0,1,.94-.89Z" transform="translate(-388.34 -447.32)"/></svg>