<svg id="Слой_1" data-name="Слой 1" xmlns="http://www.w3.org/2000/svg" viewBox="0 0 12.9 10.93"><defs><style>.cls-1{fill:#004c9a;}</style></defs><path class="cls-1" d="M445.2,415.77c.51-.4,1-.77,1.47-1.16a.48.48,0,0,1,.59-.06.46.46,0,0,1,0,.78c-.52.43-1,.84-1.58,1.26l-.69.54a.44.44,0,0,1-.69-.09c-.66-.87-1.3-1.75-1.95-2.64a.46.46,0,0,1,.09-.67.45.45,0,0,1,.66.12c.32.41.62.83.92,1.25l.21.25a5.4,5.4,0,0,1,1-2.68,5.26,5.26,0,0,1,5.07-2.24,5.17,5.17,0,0,1,4.47,3.48,5.43,5.43,0,0,1-4.44,7.36,5.33,5.33,0,0,1-4.46-1.5.47.47,0,0,1,0-.7.48.48,0,0,1,.7,0,4.5,4.5,0,0,0,3.47,1.26,4.53,4.53,0,1,0-4.85-4.68S445.18,415.72,445.2,415.77Z" transform="translate(-442.26 -410.38)"/></svg>