<svg id="Слой_1" data-name="Слой 1" xmlns="http://www.w3.org/2000/svg" viewBox="0 0 12.16 12.82"><defs><style>.cls-1{fill:#004c9a;}</style></defs><path class="cls-1" d="M400.35,460.35a5.46,5.46,0,0,1-4.57.59,5.38,5.38,0,0,1-3-2.39,5.5,5.5,0,0,1,8.38-7,5.57,5.57,0,0,1,1.55,2.38,5.48,5.48,0,0,1,.15,2.84,5.68,5.68,0,0,1-1.31,2.57.75.75,0,0,1,.15.09l2.17,2.18a.75.75,0,0,1,0,1.15.77.77,0,0,1-1.06-.05l-1.9-1.91Zm1-4.67a4,4,0,1,0-3.95,4A4,4,0,0,0,401.38,455.68Z" transform="translate(-391.92 -450.18)"/></svg>