<svg id="Слой_1" data-name="Слой 1" xmlns="http://www.w3.org/2000/svg" viewBox="0 0 59.19 59.16"><defs><style>.cls-1{fill:#004c9a;}</style></defs><path class="cls-1" d="M428.18,484.24l-2.11,2L405.83,466a22.85,22.85,0,0,1-8.47,4.66A22.21,22.21,0,1,1,388,427.37,21.61,21.61,0,0,1,403.69,431a1.48,1.48,0,0,1,.5.76,20,20,0,0,1,.49,2.3c.07.4.23.56.63.56a16.9,16.9,0,0,1,2,.09,1.67,1.67,0,0,1,1,.49,22.12,22.12,0,0,1,0,28.31l-.37.46ZM385.54,454.3l2.06,2-5.4,5.47-6.05-6.09-2.43,1.63c.07.16.11.27.16.37a19.24,19.24,0,1,0,33.24-19.17c-.72-1.06-1-1.16-2.33-.87a18.05,18.05,0,0,0-.34,1.81c0,.58-.33.77-.84.88-1.43.33-2.86.71-4.34,1.09l2.94,5.91-6.14,1.55.95,2.92-2.8.94-2-6,5.66-1.43L395,439.47c2.14-.53,4.19-1.06,6.25-1.56.41-.09.53-.28.65-.66.38-1.23-.09-2.37-.27-3.54a1.28,1.28,0,0,0-.72-1,19,19,0,0,0-12.29-2.43A19.25,19.25,0,0,0,372,450.35c.07,1.36.37,2.71.59,4.2l4.07-2.7,5.71,5.73Z" transform="translate(-368.99 -427.12)"/></svg>