<svg id="Слой_1" data-name="Слой 1" xmlns="http://www.w3.org/2000/svg" viewBox="0 0 34.59 36.19"><defs><style>.cls-1{fill:#e5221e;}</style></defs><path class="cls-1" d="M413.19,458.76l-1-1.41c-.65-.89-.64-1.09,0-2l.77-1.06c.6-.82,1.22-1.67,1.82-2.51a1.13,1.13,0,0,0,.26-.92,1.17,1.17,0,0,0-.65-.72A2,2,0,0,0,414,450l-1-.33-3.45-1.1a1,1,0,0,1-.77-1c0-1.17,0-2.37,0-3.52,0-.4,0-.8,0-1.2a1.36,1.36,0,0,0-.41-1.11,1.39,1.39,0,0,0-1.18-.05l-1,.32c-1.16.37-2.36.76-3.53,1.16a1,1,0,0,1-1.2-.4c-.46-.65-.93-1.3-1.39-1.93l-1.48-2a1,1,0,0,0-.95-.51,1.15,1.15,0,0,0-.87.57l-.18.24c-.89,1.22-1.81,2.48-2.7,3.72a.86.86,0,0,1-1.09.36c-1.33-.45-2.69-.88-4-1.31l-.6-.19a1.3,1.3,0,0,0-1.15.06,1.31,1.31,0,0,0-.42,1.09v1c0,1.19,0,2.43,0,3.63a1,1,0,0,1-.8,1.12c-1.23.38-2.48.78-3.69,1.18l-.78.26a1.06,1.06,0,0,0-.61,1.85l1.72,2.36.85,1.17c.61.84.61,1.05,0,1.88l-.68.94c-.65.88-1.32,1.8-2,2.7a1.2,1.2,0,0,0-.27.85,1.16,1.16,0,0,0,.55.7,1.75,1.75,0,0,0,.45.2l.67.22c1.22.4,2.48.82,3.72,1.2a1,1,0,0,1,.84,1.13c0,1.12,0,2.25,0,3.35v1.27a1.27,1.27,0,0,0,.46,1.07,1.29,1.29,0,0,0,1.18.11l.68-.23c1.26-.4,2.56-.82,3.83-1.25a1.47,1.47,0,0,1,.38-.07.89.89,0,0,1,.75.45c.36.53.75,1.06,1.13,1.58l.3.39.45.63c.39.54.79,1.09,1.21,1.6a.83.83,0,0,0,1.21.1,1,1,0,0,0,.32-1.29c-1.25-1.75-2.56-3.55-3.9-5.35a1,1,0,0,0-1.18-.32l-.79.25-4.06,1.31v-1.11c0-.39,0-.78,0-1.17,0-.89,0-1.81,0-2.71a1,1,0,0,0-.86-1.19l-.4-.12-.45-.15-2.36-.77-1.48-.48.32-.49.09-.13.16-.25,1-1.32,1.31-1.81a1.08,1.08,0,0,0,0-1.55l-1.74-2.39-1.14-1.57.56-.2.14-.06.27-.09,1.49-.49,2.27-.74a1,1,0,0,0,.84-1.16c0-1,0-2,0-3.06v-1.95l1.85.6,2.85.92a1.09,1.09,0,0,0,1.51-.49l1.16-1.6.67-.92.47-.64.59-.81.36.5.79,1.08c.62.86,1.21,1.67,1.82,2.49a1,1,0,0,0,1.3.43l1.73-.55.68-.22,1.24-.4,1.17-.38v5a1,1,0,0,0,.81,1.11l.69.22.44.15,2.17.7,1.46.48-.34.49-.08.12a1.27,1.27,0,0,1-.13.19l-.86,1.18c-.5.7-1,1.39-1.52,2.09a1,1,0,0,0,0,1.37l.33.45.19.27,2.43,3.34-.55.2-.14.06-.25.09-1.67.54-2.09.68a1,1,0,0,0-.87,1.19v3.87c0,.12,0,.23,0,.35a1,1,0,0,1,0,.17l0,.57-.72-.23-.3-.09-1.15-.37-2.61-.84a1.08,1.08,0,0,0-.89.05.94.94,0,0,0-.41.64,1,1,0,0,0,.71,1.19c2,.67,4.07,1.33,5.83,1.9a1.06,1.06,0,0,0,1.57-1.15c0-.36,0-.72,0-1.08,0-1.18,0-2.39,0-3.59a1,1,0,0,1,.8-1.12c1.16-.35,2.33-.73,3.46-1.1l1-.34a1.18,1.18,0,0,0,.82-.74,1.23,1.23,0,0,0-.23-1.13Z" transform="translate(-380.46 -438.26)"/><path class="cls-1" d="M393,461.66a1.2,1.2,0,0,0,1.41-.22l0,0,8.46-8.44a1.22,1.22,0,0,0,.37-.85,1.33,1.33,0,0,0-.41-.9,1.13,1.13,0,0,0-1.67,0c-2.72,2.7-5.63,5.6-8.51,8.51a1.62,1.62,0,0,0-.33.56.53.53,0,0,0-.06.14A1.14,1.14,0,0,0,393,461.66Z" transform="translate(-380.46 -438.26)"/><path class="cls-1" d="M393.46,453.51a1.4,1.4,0,0,0,1.44-1.42,1.43,1.43,0,0,0-2.86,0A1.41,1.41,0,0,0,393.46,453.51Z" transform="translate(-380.46 -438.26)"/><path class="cls-1" d="M402,462.06a1.43,1.43,0,1,0-1.41-1.45A1.41,1.41,0,0,0,402,462.06Z" transform="translate(-380.46 -438.26)"/></svg>