<svg id="Слой_1" data-name="Слой 1" xmlns="http://www.w3.org/2000/svg" viewBox="0 0 36.06 34.67"><defs><style>.cls-1{fill:#8eb04c;}.cls-2{fill:#fff;}</style></defs><path class="cls-1" d="M312.83,410.68a5.49,5.49,0,0,1,0,1c-.09.59-.25,1.17-.36,1.76a4.37,4.37,0,0,0,1.45,4.31l1.43,1.22a2,2,0,0,1,.06,3.16c-.42.38-.87.74-1.3,1.13a4.31,4.31,0,0,0-1.36,4.59c.14.54.3,1.09.43,1.64A2,2,0,0,1,311.3,432c-.61.06-1.22.08-1.83.16a4.3,4.3,0,0,0-3.65,2.74c-.24.57-.43,1.15-.66,1.72a2,2,0,0,1-2.92,1.06c-.54-.3-1-.65-1.58-1a4.3,4.3,0,0,0-4.66.08c-.47.29-.92.6-1.39.89a2.06,2.06,0,0,1-3.17-1,17.07,17.07,0,0,0-.8-1.86,4.25,4.25,0,0,0-3.57-2.3c-.61-.06-1.22-.06-1.83-.1a2,2,0,0,1-1.91-2.55c.12-.55.24-1.1.35-1.65a4.4,4.4,0,0,0-1.55-4.51c-.44-.37-.89-.73-1.33-1.11a2,2,0,0,1,0-3.16c.44-.39.91-.75,1.34-1.15a4.33,4.33,0,0,0,1.32-4.51c-.14-.56-.31-1.11-.44-1.67a2,2,0,0,1,1.89-2.59c.7-.06,1.4-.08,2.09-.2a4.29,4.29,0,0,0,3.38-2.78c.21-.53.39-1.06.6-1.59a2,2,0,0,1,3.06-1c.48.29.95.6,1.44.88a4.33,4.33,0,0,0,4.7-.07c.5-.31,1-.64,1.48-.95a2,2,0,0,1,3,.89c.33.71.59,1.47,1,2.15a4.2,4.2,0,0,0,3.51,2.2c.61.06,1.23.06,1.84.11A2.14,2.14,0,0,1,312.83,410.68Z" transform="translate(-280.04 -403.42)"/><path class="cls-2" d="M290.1,420.92l-.61-1.26h0v4.23h-1.29v-6.28h1.49l1.72,3,.61,1.26h0v-4.23h1.29v6.28h-1.49Z" transform="translate(-280.04 -403.42)"/><path class="cls-2" d="M294.7,423.89v-6.28H299v1.22h-2.91v1.27h2.5v1.22h-2.5v1.36H299v1.21Z" transform="translate(-280.04 -403.42)"/><path class="cls-2" d="M301.15,423.89l-1.42-6.28h1.35l.59,3,.33,1.74h0l.4-1.74.69-3h1.49l.71,3,.38,1.74h0l.33-1.74.61-3H308l-1.46,6.28H305l-.8-3.4-.3-1.38h0l-.31,1.38-.8,3.4Z" transform="translate(-280.04 -403.42)"/></svg>