<svg id="Слой_1" data-name="Слой 1" xmlns="http://www.w3.org/2000/svg" viewBox="0 0 34.47 36.12"><defs><style>.cls-1{fill:#198fcf;}.cls-2{fill:#fff;}</style></defs><path class="cls-1" d="M315.31,416a5.91,5.91,0,0,1-.34.89c-.28.53-.62,1-.92,1.55a4.38,4.38,0,0,0,0,4.55c.3.54.63,1.08.95,1.61a2,2,0,0,1-1,3c-.53.23-1.08.42-1.6.65a4.3,4.3,0,0,0-2.78,3.9c0,.56-.08,1.13-.13,1.69a2,2,0,0,1-2.57,1.83c-.6-.14-1.19-.32-1.79-.45a4.3,4.3,0,0,0-4.34,1.41c-.41.46-.78.95-1.18,1.42a2,2,0,0,1-3.11,0c-.41-.45-.78-.95-1.18-1.41a4.32,4.32,0,0,0-4.44-1.44c-.53.12-1.07.27-1.6.4a2.08,2.08,0,0,1-2.67-2,16.84,16.84,0,0,0-.15-2,4.27,4.27,0,0,0-2.63-3.34c-.55-.25-1.14-.45-1.7-.68a2,2,0,0,1-1-3c.29-.48.59-1,.87-1.45a4.39,4.39,0,0,0,0-4.77l-.89-1.48a2,2,0,0,1,1-3c.54-.23,1.1-.42,1.63-.66a4.31,4.31,0,0,0,2.72-3.83c0-.57.07-1.15.13-1.72a2,2,0,0,1,2.62-1.84c.68.17,1.36.38,2.05.49a4.28,4.28,0,0,0,4.09-1.54c.37-.42.72-.87,1.08-1.3a2.06,2.06,0,0,1,3.24,0c.36.43.7.88,1.08,1.31a4.31,4.31,0,0,0,4.46,1.45l1.71-.41a2,2,0,0,1,2.56,1.81c.07.78.07,1.58.21,2.35a4.2,4.2,0,0,0,2.61,3.22c.56.25,1.14.46,1.7.7A2.15,2.15,0,0,1,315.31,416Z" transform="translate(-280.84 -402.72)"/><path class="cls-2" d="M295.12,423.92h-1.58l-1.36-2.31h0l-1.32,2.31h-1.47l2-3.25-1.92-3h1.6l1.22,2.12h0l1.24-2.12H295l-1.94,3.06Z" transform="translate(-280.84 -402.72)"/><path class="cls-2" d="M296,417.64h1.33v3.07l-.14,1.32h0l.62-1.19,2.07-3.2h1.22v6.28h-1.33v-3.07l.14-1.32h0l-.62,1.2-2.07,3.19H296Z" transform="translate(-280.84 -402.72)"/><path class="cls-2" d="M305.1,418.86v5.06h-1.37v-5.06H302v-1.22h4.77v1.22Z" transform="translate(-280.84 -402.72)"/></svg>