<svg id="Слой_1" data-name="Слой 1" xmlns="http://www.w3.org/2000/svg" viewBox="0 0 32.76 32.76"><defs><style>.cls-1{fill:#e41515;}.cls-2{fill:#fff;}</style></defs><circle class="cls-1" cx="16.38" cy="16.38" r="16.38"/><path class="cls-2" d="M289.87,424a3.07,3.07,0,0,1-2.38-1l.9-.91a2,2,0,0,0,1.57.71,1.18,1.18,0,0,0,.75-.2.69.69,0,0,0,.24-.55.67.67,0,0,0-.14-.43.9.9,0,0,0-.59-.24l-.62-.08a2.38,2.38,0,0,1-1.46-.6,1.74,1.74,0,0,1-.46-1.27,1.85,1.85,0,0,1,.16-.78,1.79,1.79,0,0,1,.46-.6,2.09,2.09,0,0,1,.74-.39,3,3,0,0,1,1-.14,3.21,3.21,0,0,1,1.25.22,2.55,2.55,0,0,1,.93.66l-.91.92a1.87,1.87,0,0,0-.54-.42,1.77,1.77,0,0,0-.81-.17,1.24,1.24,0,0,0-.68.16.53.53,0,0,0-.23.45.55.55,0,0,0,.18.46,1.28,1.28,0,0,0,.57.21l.62.09a2.75,2.75,0,0,1,1.44.6,1.68,1.68,0,0,1,.47,1.27,2,2,0,0,1-.16.83,1.81,1.81,0,0,1-.48.65,2.14,2.14,0,0,1-.76.42A3.41,3.41,0,0,1,289.87,424Z" transform="translate(-281.7 -404.4)"/><path class="cls-2" d="M297.32,423.92l-.45-1.5h-2.09l-.45,1.5h-1.39l2.07-6.28h1.69l2.05,6.28Zm-1.48-5h0l-.69,2.38h1.44Z" transform="translate(-281.7 -404.4)"/><path class="cls-2" d="M299.62,423.92v-6.28H301v5.06h2.39v1.22Z" transform="translate(-281.7 -404.4)"/><path class="cls-2" d="M304.39,423.92v-6.28h4.27v1.21h-2.9v1.28h2.49v1.21h-2.49v1.36h2.9v1.22Z" transform="translate(-281.7 -404.4)"/></svg>