<svg id="Слой_1" data-name="Слой 1" xmlns="http://www.w3.org/2000/svg" viewBox="0 0 11.02 11.03"><defs><style>.cls-1{fill:#8d8d8d;}</style></defs><path class="cls-1" d="M446.52,419.11l-2.47,2.47-.68-.68,2.48-2.45a4.81,4.81,0,1,1,6.1,1.12,4.77,4.77,0,0,1-3.74.43A4.74,4.74,0,0,1,446.52,419.11Zm6.91-3.74a3.86,3.86,0,1,0-3.86,3.86A3.87,3.87,0,0,0,453.43,415.37Z" transform="translate(-443.37 -410.55)"/><path class="cls-1" d="M450.05,415.85v1.45h-1v-1.44h-1.44v-1h1.44v-1.44h1v1.44h1.45v1Z" transform="translate(-443.37 -410.55)"/></svg>